<?xml version="1.0" standalone="no"?>
<!DOCTYPE svg PUBLIC "-//W3C//DTD SVG 20010904//EN"
 "http://www.w3.org/TR/2001/REC-SVG-20010904/DTD/svg10.dtd">
<svg version="1.0" xmlns="http://www.w3.org/2000/svg"
 width="16.000000pt" height="16.000000pt" viewBox="0 0 16.000000 16.000000"
 preserveAspectRatio="xMidYMid meet">
<metadata>
Created by potrace 1.11, written by Peter Selinger 2001-2013
</metadata>
<g transform="translate(0.000000,16.000000) scale(0.002286,-0.002286)"
fill="#000000" stroke="none">
<path d="M3298 6975 c-2 -2 -48 -6 -103 -10 -55 -3 -107 -8 -115 -10 -8 -2
-37 -6 -65 -10 -27 -3 -72 -10 -100 -15 -27 -5 -66 -12 -85 -15 -311 -50 -762
-221 -1090 -413 -353 -206 -689 -495 -935 -802 -33 -41 -63 -77 -66 -80 -3 -3
-37 -50 -76 -105 -177 -249 -336 -553 -440 -844 -28 -80 -97 -307 -108 -361
-28 -128 -55 -280 -60 -335 -4 -38 -9 -73 -11 -76 -23 -40 -24 -683 0 -795 2
-11 7 -45 10 -75 10 -93 46 -278 77 -398 125 -481 342 -914 659 -1315 132
-168 373 -405 565 -557 159 -127 451 -309 620 -388 142 -67 178 -82 275 -119
190 -72 441 -144 580 -167 19 -3 58 -10 85 -15 68 -13 194 -29 290 -38 156
-13 625 -5 695 13 8 2 42 7 75 10 33 4 83 11 110 16 28 6 64 13 80 16 31 5
217 50 315 76 99 27 312 108 458 175 599 274 1125 731 1476 1282 16 25 37 57
48 72 10 15 18 30 18 33 0 3 11 23 25 45 38 60 149 284 191 385 115 279 207
621 239 885 2 19 7 55 10 80 23 187 24 617 0 762 -2 13 -6 46 -10 73 -16 134
-61 361 -90 455 -8 25 -31 99 -51 165 -56 182 -151 404 -252 590 -51 93 -95
169 -102 175 -3 3 -21 30 -39 60 -40 66 -72 110 -175 243 -377 485 -894 872
-1456 1092 -52 20 -104 41 -115 46 -58 25 -384 114 -495 134 -82 15 -280 44
-345 50 -69 7 -511 15 -517 10z"/>
</g>
</svg>
